<svg viewBox="0 0 100 60" xmlns="http://www.w3.org/2000/svg">
  <!-- Liasse de billets - Espèces -->
  <g fill="#2c3e50" stroke="#2c3e50" stroke-width="1">
    <!-- Billet arrière -->
    <rect x="15" y="25" width="60" height="30" rx="3" fill="#e8e8e8" stroke="#333"/>
    <line x1="20" y1="30" x2="70" y2="30" stroke="#333" stroke-width="0.5"/>
    <line x1="20" y1="35" x2="70" y2="35" stroke="#333" stroke-width="0.5"/>
    <line x1="20" y1="40" x2="70" y2="40" stroke="#333" stroke-width="0.5"/>
    <line x1="20" y1="45" x2="70" y2="45" stroke="#333" stroke-width="0.5"/>
    <line x1="20" y1="50" x2="70" y2="50" stroke="#333" stroke-width="0.5"/>
    
    <!-- Billet milieu -->
    <rect x="20" y="20" width="60" height="30" rx="3" fill="#f0f0f0" stroke="#333"/>
    <line x1="25" y1="25" x2="75" y2="25" stroke="#333" stroke-width="0.5"/>
    <line x1="25" y1="30" x2="75" y2="30" stroke="#333" stroke-width="0.5"/>
    <line x1="25" y1="35" x2="75" y2="35" stroke="#333" stroke-width="0.5"/>
    <line x1="25" y1="40" x2="75" y2="40" stroke="#333" stroke-width="0.5"/>
    <line x1="25" y1="45" x2="75" y2="45" stroke="#333" stroke-width="0.5"/>
    
    <!-- Billet avant -->
    <rect x="25" y="15" width="60" height="30" rx="3" fill="#ffffff" stroke="#333" stroke-width="2"/>
    <line x1="30" y1="20" x2="80" y2="20" stroke="#333" stroke-width="0.8"/>
    <line x1="30" y1="25" x2="80" y2="25" stroke="#333" stroke-width="0.8"/>
    <line x1="30" y1="30" x2="80" y2="30" stroke="#333" stroke-width="0.8"/>
    <line x1="30" y1="35" x2="80" y2="35" stroke="#333" stroke-width="0.8"/>
    <line x1="30" y1="40" x2="80" y2="40" stroke="#333" stroke-width="0.8"/>
    
    <!-- Attache/clip -->
    <rect x="47" y="10" width="6" height="10" rx="1" fill="#333"/>
  </g>
</svg>
