<?xml version="1.0" encoding="UTF-8"?>
<svg id="favicon" xmlns="http://www.w3.org/2000/svg" viewBox="0 0 32 32" width="32" height="32">
  <defs>
    <style>.cls-1{fill:#2563eb;stroke-width:0px;}</style>
  </defs>
  <g>
    <path class="cls-1" d="m16.8,16.8c-2.1-2.1-5.8-7.5-3.2-16.8,2.7,4,6.2,11,3.2,16.8Z"/>
    <path class="cls-1" d="m25.4,20.3c-2.8,0-5.3-1.3-7.7-2.5.1-.1.2-.1.4-.2.8-.4,1.7-.7,2.7-.9,1-.2,2.1-.3,3.2-.3,1.3,0,2.7.2,4.1.5,1.4.3,2.9.8,4.4,1.4.2.1.3.1.5.2-.2.1-.4.2-.6.3-1.5.7-3.1,1.2-4.6,1.4-.8.1-1.5.2-2.3.2h-.1Z"/>
    <path class="cls-1" d="m27.4,7.4c-1.6,4.3-4.7,9.3-9.7,9.7.8-5.1,5-8.3,9.7-9.7Z"/>
    <path class="cls-1" d="m16.1,17.6c-1.6,1.2-3.5,1.9-5.3,2.2-3.6.6-7.4-.4-10.8-2.2,2.4-1.1,5.3-2.1,8.2-2.3.7-.1,1.5-.1,2.2,0,.3,0,.5.1.8.1,1.8.3,3.5.9,4.9,2.2Z"/>
    <path class="cls-1" d="m16.5,18.5c.7,3-1,5.5-3.5,7-.1-2.7.6-6,3.5-7Z"/>
  </g>
</svg>
